<svg xmlns="http://www.w3.org/2000/svg" width="61" height="60" fill="none" viewBox="0 0 61 60">
  <path fill="#000" d="M40.2 41.775a1.85 1.85 0 0 1-1.325-.55 1.875 1.875 0 0 1 0-2.65l6.7-6.7H20.45a1.875 1.875 0 1 1 0-3.75h29.6a1.875 1.875 0 0 1 1.325 3.2l-10 10a1.85 1.85 0 0 1-1.175.45Z"/>
  <path fill="#000" d="M50.05 31.875a1.775 1.775 0 0 1-1.325-.55l-10-10a1.875 1.875 0 1 1 2.65-2.65l10 10a1.875 1.875 0 0 1-1.325 3.2Zm-29.6 9.9A1.9 1.9 0 0 1 18.575 40V20a1.875 1.875 0 1 1 3.75 0v20a1.875 1.875 0 0 1-1.875 1.775Zm-10.1 0A1.9 1.9 0 0 1 8.475 40V20a1.875 1.875 0 1 1 3.75 0v20a1.875 1.875 0 0 1-1.875 1.775Z"/>
</svg>
