<svg xmlns="http://www.w3.org/2000/svg" width="61" height="60" fill="none" viewBox="0 0 61 60">
  <path fill="#000" d="M21.75 36.275a1.85 1.85 0 0 1-1.325-.55L15.9 31.2a1.85 1.85 0 0 1 0-2.65l5-5a1.875 1.875 0 0 1 2.65 2.65L19.875 30l3.225 3.075a1.875 1.875 0 0 1-1.35 3.2Zm17.7 0a1.85 1.85 0 0 1-1.325-.55 1.875 1.875 0 0 1 0-2.65l3.2-3.075-3.575-3.575a1.875 1.875 0 0 1 2.65-2.65l5 5a1.85 1.85 0 0 1 0 2.65l-4.525 4.525a1.85 1.85 0 0 1-1.425.325ZM28.1 38.6a1.575 1.575 0 0 1-.65 0 1.85 1.85 0 0 1-1.1-2.5l5.1-14.1a1.874 1.874 0 0 1 2.5-1.1 1.852 1.852 0 0 1 1.1 2.5l-5.3 14.1a1.924 1.924 0 0 1-1.65 1.1Z"/>
  <path fill="#000" d="M43.725 56.875h-26.25a10 10 0 0 1-10-10v-33.75a10 10 0 0 1 10-10h26.25a10 10 0 0 1 10 10v33.75a10 10 0 0 1-10 10Zm-26.25-50a6.25 6.25 0 0 0-6.25 6.25v33.75a6.25 6.25 0 0 0 6.25 6.25h26.25a6.25 6.25 0 0 0 6.25-6.25v-33.75a6.25 6.25 0 0 0-6.25-6.25h-26.25Z"/>
</svg>
