<svg xmlns="http://www.w3.org/2000/svg" width="61" height="60" fill="none" viewBox="0 0 61 60">
  <path fill="#000" d="M21.2 31.875A1.876 1.876 0 1 1 23.1 30a1.9 1.9 0 0 1-1.9 1.875Zm9.6 0a1.875 1.875 0 1 0 0-3.75 1.875 1.875 0 0 0 0 3.75Zm10 .05a1.9 1.9 0 1 1-.05-3.801 1.9 1.9 0 0 1 .05 3.801Zm-35.875-.05a1.875 1.875 0 0 1-1.63-2.82 1.9 1.9 0 0 1 1.13-.88s6.15-1.675 6.15-5.675V11.25a6.302 6.302 0 0 1 6.45-6.45 1.875 1.875 0 0 1 0 3.75 2.5 2.5 0 0 0-2.7 2.725V22.5c0 6.925-8.575 9.25-8.95 9.35l-.45.025Z"/>
  <path fill="#000" d="M17.025 55.2a1.444 1.444 0 0 1-.475 0c-.375 0-8.95-2.5-8.95-9.35V34.575a2.5 2.5 0 0 0-2.675-2.7 1.875 1.875 0 1 1 0-3.75 6.3 6.3 0 0 1 6.425 6.425V45.8c0 4 6.075 5.7 6.125 5.725a1.824 1.824 0 0 1 1.35 2.275 1.851 1.851 0 0 1-1.8 1.4ZM56.7 31.875h-.475c-.375 0-8.95-2.5-8.95-9.35V11.25a2.502 2.502 0 0 0-2.7-2.7 1.875 1.875 0 0 1 0-3.75 6.3 6.3 0 0 1 6.45 6.425V22.5c0 4 6.075 5.7 6.125 5.7a1.9 1.9 0 0 1 1.35 2.3 1.85 1.85 0 0 1-1.8 1.375Z"/>
  <path fill="#000" d="M44.575 55.2a1.876 1.876 0 0 1-.475-3.675s6.15-1.675 6.15-5.725V34.575a6.3 6.3 0 0 1 6.425-6.45 1.875 1.875 0 1 1 0 3.75A2.5 2.5 0 0 0 54 34.6v11.2c0 6.925-8.575 9.25-8.95 9.35a1.45 1.45 0 0 1-.475.05Z"/>
</svg>
