<svg xmlns="http://www.w3.org/2000/svg" width="60" height="60" fill="none" viewBox="0 0 60 60">
  <path fill="#000" d="M17.5 56.125a9.7 9.7 0 1 1-.05-19.4 9.7 9.7 0 0 1 .05 19.4Zm0-15.625a5.95 5.95 0 1 0 5.925 5.95A5.975 5.975 0 0 0 17.5 40.5Zm0-17.25a9.699 9.699 0 1 1-.05-19.398 9.699 9.699 0 0 1 .05 19.398Zm0-15.625a5.95 5.95 0 1 0 0 11.9 5.95 5.95 0 0 0 0-11.9Zm25 33.5a9.7 9.7 0 1 1 9.7-9.675 9.676 9.676 0 0 1-9.7 9.675Zm0-15.625a5.95 5.95 0 1 0 0 11.9 5.95 5.95 0 0 0 0-11.9Z"/>
  <path fill="#000" d="M17.5 40.5a1.848 1.848 0 0 1-1.875-1.875v-17.25a1.875 1.875 0 0 1 3.7-.475c0 .35 2.5 8.675 15.325 8.675a1.875 1.875 0 0 1 0 3.75 20.523 20.523 0 0 1-15.275-5.475v10.775A1.875 1.875 0 0 1 17.5 40.5Z"/>
</svg>
