<svg xmlns="http://www.w3.org/2000/svg" width="61" height="60" fill="none" viewBox="0 0 61 60">
  <path fill="#000" d="M17.7 56.125a9.7 9.7 0 1 1-.05-19.399 9.7 9.7 0 0 1 .05 19.399Zm0-15.625a5.95 5.95 0 1 0 5.925 5.95A5.975 5.975 0 0 0 17.7 40.5Zm0-17.25a9.7 9.7 0 1 1-.05-19.4 9.7 9.7 0 0 1 .05 19.4Zm0-15.625a5.95 5.95 0 1 0 0 11.9 5.95 5.95 0 0 0 0-11.9Zm25 15.625a9.7 9.7 0 1 1 0-19.399 9.7 9.7 0 0 1 0 19.399Zm0-15.625a5.95 5.95 0 1 0 5.95 5.925 5.926 5.926 0 0 0-5.95-5.925Z"/>
  <path fill="#000" d="M17.7 40.5a1.848 1.848 0 0 1-1.875-1.875v-17.25a1.875 1.875 0 1 1 3.75 0v17.25A1.875 1.875 0 0 1 17.7 40.5Z"/>
  <path fill="#000" d="M32.7 33.325h-15a1.875 1.875 0 1 1 0-3.75h15a7.9 7.9 0 0 0 8.225-8.2 1.875 1.875 0 1 1 3.75 0A11.525 11.525 0 0 1 32.7 33.325Z"/>
</svg>
