<svg xmlns="http://www.w3.org/2000/svg" width="61" height="60" fill="none" viewBox="0 0 61 60">
  <path fill="#000" d="M47.15 39.15a1.975 1.975 0 0 1-1.325-.55 1.875 1.875 0 0 1 0-2.65L51.85 30l-5.875-5.95a1.876 1.876 0 0 1 2.65-2.65l7.175 7.2a1.875 1.875 0 0 1 0 2.65l-7.35 7.35a1.926 1.926 0 0 1-1.3.55Zm-32.85 0c-.497 0-.974-.198-1.325-.55L5.8 31.4a1.875 1.875 0 0 1 0-2.65l7.325-7.35a1.883 1.883 0 0 1 2.675 2.65L9.75 30l5.875 5.875a1.875 1.875 0 0 1 0 2.65c-.345.37-.82.594-1.325.625Zm16.5 0a9.15 9.15 0 1 1 0-18.3 9.15 9.15 0 0 1 0 18.3Zm0-14.55a5.4 5.4 0 1 0 0 10.8 5.4 5.4 0 0 0 0-10.8Z"/>
</svg>
