<svg xmlns="http://www.w3.org/2000/svg" width="20" height="20" fill="none" viewBox="0 0 20 20">
  <path fill="#000" fill-rule="evenodd" d="M20 10c0 5.523-4.477 10-10 10S0 15.523 0 10 4.477 0 10 0s10 4.477 10 10Zm-4.795-1.462c.807 0 1.462.655 1.462 1.462 0 .597-.363 1.111-.842 1.345.023.14.035.28.035.433 0 2.245-2.608 4.058-5.837 4.058-3.228 0-5.836-1.813-5.836-4.058 0-.152.012-.304.035-.445a1.463 1.463 0 0 1 .596-2.795c.387 0 .75.164 1.007.41 1.005-.737 2.397-1.194 3.953-1.24l.737-3.486a.285.285 0 0 1 .117-.164.291.291 0 0 1 .198-.035l2.421.515c.164-.35.515-.585.924-.585.573 0 1.041.468 1.041 1.041s-.467 1.041-1.04 1.041a1.042 1.042 0 0 1-1.042-.994l-2.163-.456-.667 3.123c1.52.058 2.9.526 3.895 1.24a1.4 1.4 0 0 1 1.006-.41ZM7.708 10c-.573 0-1.041.468-1.041 1.04 0 .574.468 1.042 1.04 1.042.574 0 1.042-.468 1.042-1.041S8.28 10 7.708 10Zm2.304 4.55c.397 0 1.754-.047 2.467-.76a.3.3 0 0 0 .024-.386.275.275 0 0 0-.386 0c-.456.444-1.404.608-2.094.608s-1.649-.164-2.093-.609a.275.275 0 0 0-.386 0 .275.275 0 0 0 0 .386c.702.702 2.07.76 2.468.76Zm1.24-3.51c0 .574.467 1.042 1.04 1.042.574 0 1.041-.468 1.041-1.041S12.866 10 12.293 10c-.574 0-1.041.468-1.041 1.04Z" clip-rule="evenodd"/>
</svg>
