<svg xmlns="http://www.w3.org/2000/svg" width="20" height="20" fill="none" viewBox="0 0 20 20">
  <path fill="#000" d="M8.24 8.39c-.57 0-1.02.5-1.02 1.11 0 .61.46 1.11 1.02 1.11.57 0 1.02-.5 1.02-1.11.01-.61-.45-1.11-1.02-1.11Zm3.65 0c-.57 0-1.02.5-1.02 1.11 0 .61.46 1.11 1.02 1.11.57 0 1.02-.5 1.02-1.11 0-.61-.45-1.11-1.02-1.11Z"/>
  <path fill="#000" d="M16.75 0H3.35C2.22 0 1.3.92 1.3 2.06v13.52c0 1.14.92 2.06 2.05 2.06h11.34l-.53-1.85 1.28 1.19 1.21 1.12L18.8 20V2.06C18.8.92 17.88 0 16.75 0Zm-3.86 13.06s-.36-.43-.66-.81c1.31-.37 1.81-1.19 1.81-1.19-.41.27-.8.46-1.15.59-.5.21-.98.35-1.45.43-.96.18-1.84.13-2.59-.01-.57-.11-1.06-.27-1.47-.43-.23-.09-.48-.2-.73-.34-.03-.02-.06-.03-.09-.05-.02-.01-.03-.02-.04-.03-.18-.1-.28-.17-.28-.17s.48.8 1.75 1.18c-.3.38-.67.83-.67.83-2.21-.07-3.05-1.52-3.05-1.52 0-3.22 1.44-5.83 1.44-5.83 1.44-1.08 2.81-1.05 2.81-1.05l.1.12c-1.8.52-2.63 1.31-2.63 1.31s.22-.12.59-.29c1.07-.47 1.92-.6 2.27-.63.06-.01.11-.02.17-.02a8.152 8.152 0 0 1 5.03.94s-.79-.75-2.49-1.27l.14-.16s1.37-.03 2.81 1.05c0 0 1.44 2.61 1.44 5.83 0 0-.85 1.45-3.06 1.52Z"/>
</svg>
