<svg xmlns="http://www.w3.org/2000/svg" width="60" height="60" fill="none" viewBox="0 0 60 60">
  <path fill="#000" d="M47.7 51.575H12.3A9.4 9.4 0 0 1 2.925 42.2V17.825A9.375 9.375 0 0 1 12.3 8.45h35.4a9.375 9.375 0 0 1 9.375 9.375V42.2a9.4 9.4 0 0 1-9.375 9.375ZM12.3 12.2a5.625 5.625 0 0 0-5.625 5.625V42.2a5.625 5.625 0 0 0 5.625 5.625h35.4a5.625 5.625 0 0 0 5.625-5.625V17.825A5.625 5.625 0 0 0 47.7 12.2H12.3Z"/>
  <path fill="#000" d="M14 21.3a2.5 2.5 0 1 1 0-5 2.5 2.5 0 0 1 0 5Zm0-3.8a1.15 1.15 0 0 0-1.15 1.15A1.175 1.175 0 1 0 14 17.5Zm9.7 3.8a2.5 2.5 0 1 1 0-5 2.5 2.5 0 0 1 0 5Zm0-3.75a1.125 1.125 0 0 0-1.2 1.15 1.15 1.15 0 0 0 1.15 1.15 1.175 1.175 0 0 0 1.15-1.15 1.15 1.15 0 0 0-1.1-1.2v.05Zm9.675 3.75a2.5 2.5 0 1 1 0-5 2.5 2.5 0 0 1 0 5Zm0-3.75a1.15 1.15 0 0 0-1.15 1.15 1.175 1.175 0 1 0 1.15-1.2v.05Zm3.5 23.55a1.85 1.85 0 0 1-1.325-.55 1.875 1.875 0 0 1 0-2.65l3.65-3.65-4.05-4.05a1.892 1.892 0 0 1 2.65-2.7l5.375 5.375a1.875 1.875 0 0 1 0 2.65l-5 5a1.776 1.776 0 0 1-1.3.575Zm-12.75 0a1.85 1.85 0 0 1-1.325-.55l-5-5a1.875 1.875 0 0 1 0-2.65l5.4-5.4a1.875 1.875 0 0 1 2.65 0 1.85 1.85 0 0 1 0 2.65l-4.05 4.1 3.65 3.65a1.85 1.85 0 0 1 0 2.65 1.775 1.775 0 0 1-1.325.55Z"/>
</svg>
