<svg xmlns="http://www.w3.org/2000/svg" width="13" height="10" fill="none" viewBox="0 0 13 10">
  <path fill="#fff" d="M7.359 8.853V7.19c0-.226.237-.408.53-.408 1.043 0 1.61-.826 1.69-2.454h-1.69c-.293 0-.53-.183-.53-.409V.41c0-.226.237-.409.53-.409h4.504c.293 0 .53.183.53.409v3.51c0 .781-.102 1.498-.303 2.13a4.617 4.617 0 0 1-.94 1.686c-.43.483-.967.862-1.598 1.126-.635.265-1.373.4-2.194.4-.292 0-.53-.183-.53-.408ZM.529 6.78c-.292 0-.529.183-.529.409v1.663c0 .225.237.408.53.408.82 0 1.559-.135 2.193-.4a4.37 4.37 0 0 0 1.598-1.126 4.61 4.61 0 0 0 .94-1.686c.201-.633.303-1.35.303-2.13V.41c0-.226-.237-.409-.53-.409H.53C.237 0 0 .183 0 .408V3.92c0 .226.237.408.53.408h1.665C2.118 5.957 1.558 6.781.53 6.781Z"/>
</svg>
