<svg xmlns="http://www.w3.org/2000/svg" width="57" height="56" fill="none" viewBox="0 0 57 56">
  <g clip-path="url(#a)">
    <path fill="#000" d="M56.188 43.391c-2.037.518-3.297.023-4.428-1.674l-8.04-11.123-1.161-1.54-9.389 12.7c-1.073 1.527-2.198 2.192-4.2 1.651l12.023-16.138-11.194-14.578c1.925-.374 3.255-.183 4.437 1.54l8.339 11.262 8.4-11.2c1.076-1.528 2.233-2.11 4.164-1.546L50.8 18.5l-5.88 7.657c-.7.875-.603 1.473.04 2.318l11.229 14.917ZM.202 26.997l.983-4.837c2.678-9.572 13.65-13.55 21.217-7.635 4.422 3.48 5.521 8.4 5.303 13.913H2.778c-.375 9.922 6.767 15.91 15.872 12.855 3.194-1.073 5.075-3.573 6.017-6.702.477-1.568 1.268-1.813 2.742-1.365-.752 3.913-2.45 7.182-6.037 9.227-5.36 3.063-13.012 2.072-17.037-2.184C1.938 37.8.947 34.671.503 31.325c-.07-.553-.21-1.08-.315-1.61.01-.905.014-1.81.014-2.716v-.002Zm2.621-.665H25.35c-.147-7.175-4.614-12.27-10.72-12.314-6.703-.053-11.515 4.922-11.806 12.314Z"/>
  </g>
  <defs>
    <clipPath id="a">
      <path fill="#fff" d="M.188 0h56v56h-56z"/>
    </clipPath>
  </defs>
</svg>
