<svg xmlns="http://www.w3.org/2000/svg" width="32" height="32" fill="none" viewBox="0 0 32 32">
  <path fill="#FC0D1B" d="M2.245 9.941a3.886 3.886 0 0 1 3.7-3.628C8.811 6.171 12.91 6 16 6c3.088 0 7.188.171 10.055.313a3.886 3.886 0 0 1 3.7 3.628C29.88 11.837 30 14.17 30 16s-.121 4.163-.244 6.059a3.886 3.886 0 0 1-3.7 3.628C23.188 25.829 19.087 26 16 26c-3.088 0-7.188-.171-10.056-.313a3.886 3.886 0 0 1-3.7-3.628C2.122 20.163 2 17.83 2 16s.121-4.163.245-6.059Z"/>
  <path fill="#fff" d="M13 12v8l8-4-8-4Z"/>
</svg>
