<svg xmlns="http://www.w3.org/2000/svg" width="57" height="56" fill="none" viewBox="0 0 57 56">
  <path fill="#000" d="M47.161 30.282c-1.794.01-3.348.44-4.65 1.083-.476-.951-.96-1.788-1.04-2.41-.094-.725-.204-1.16-.09-2.024.115-.864.615-2.09.608-2.181-.007-.093-.112-.532-1.147-.54-1.035-.008-1.92.199-2.024.472-.104.273-.303.888-.427 1.53-.18.938-2.066 4.285-3.136 6.035-.35-.684-.647-1.286-.71-1.762-.094-.726-.203-1.16-.089-2.024.114-.865.615-2.09.608-2.182-.007-.092-.112-.532-1.147-.54-1.035-.007-1.92.2-2.024.473-.104.273-.216.91-.427 1.529-.213.617-2.717 6.2-3.374 7.648a44.09 44.09 0 0 1-.83 1.733l-.002-.002-.034.072c-.176.344-.28.535-.28.535l.004.007c-.14.253-.29.487-.363.487-.052 0-.155-.673.022-1.597.373-1.937 1.268-4.956 1.26-5.061-.005-.054.167-.58-.584-.855-.73-.267-.991.178-1.058.18-.064 0-.111.157-.111.157s.813-3.396-1.552-3.396c-1.48 0-3.528 1.618-4.537 3.084-.637.348-2.001 1.093-3.447 1.887l-1.66.913-.11-.12c-2.87-3.061-8.17-5.225-7.947-9.34.082-1.496.602-5.434 10.189-10.21 7.852-3.914 14.14-2.837 15.226-.451 1.552 3.41-3.36 9.746-11.515 10.661-3.107.349-4.744-.856-5.151-1.304-.428-.473-.492-.494-.652-.405-.26.145-.096.561 0 .81.244.633 1.242 1.756 2.946 2.317 1.499.492 5.147.761 9.558-.945 4.942-1.912 8.8-7.23 7.666-11.673-1.152-4.52-8.647-6.006-15.74-3.486-4.227 1.5-8.797 3.855-12.084 6.928-3.907 3.654-4.53 6.835-4.273 8.164.912 4.723 7.421 7.798 10.027 10.077l-.359.198c-1.306.646-6.268 3.243-7.51 5.986-1.408 3.111.224 5.344 1.305 5.645 3.347.931 6.781-.744 8.628-3.497 1.846-2.752 1.62-6.337.774-7.973l-.033-.06 1.022-.604c.665-.39 1.319-.755 1.884-1.063-.317.868-.55 1.91-.67 3.414-.142 1.766.583 4.05 1.53 4.948.418.395.92.405 1.237.405 1.102 0 1.605-.917 2.16-2.002.678-1.33 1.282-2.88 1.282-2.88s-.756 4.184 1.304 4.184c.751 0 1.506-.974 1.843-1.47l.001.008.059-.097a5.01 5.01 0 0 0 .122-.195l.004-.022c.302-.524.971-1.718 1.975-3.689 1.297-2.546 2.54-5.735 2.54-5.735s.116.78.495 2.07c.223.758.697 1.597 1.072 2.402a30.95 30.95 0 0 1-.486.656l.005.013c-.24.32-.51.664-.792 1-1.025 1.22-2.244 2.612-2.407 3.014-.193.473-.147.821.225 1.102.272.204.755.237 1.26.203.92-.062 1.567-.29 1.886-.43a6.334 6.334 0 0 0 1.622-.852c1.005-.739 1.61-1.794 1.552-3.194-.033-.771-.278-1.536-.59-2.257.092-.13.183-.263.275-.396 1.583-2.315 2.812-4.858 2.812-4.858s.115.779.494 2.07c.191.651.57 1.364.911 2.062-1.488 1.21-2.411 2.616-2.732 3.537-.593 1.706-.128 2.478.742 2.654.394.08.952-.101 1.37-.278a6.342 6.342 0 0 0 1.734-.892c1.005-.738 1.971-1.772 1.913-3.17-.027-.638-.2-1.27-.434-1.877 1.262-.526 2.895-.818 4.977-.575 4.465.522 5.34 3.309 5.173 4.475-.168 1.167-1.104 1.809-1.418 2.002-.313.194-.408.262-.383.405.039.21.184.202.45.157.368-.062 2.345-.949 2.43-3.102.106-2.737-2.513-5.74-7.153-5.716ZM12.748 41.883c-1.48 1.614-3.545 2.223-4.431 1.71-.957-.555-.578-2.93 1.236-4.643 1.106-1.043 2.534-2.004 3.482-2.596l.917-.55.1-.056-.001-.002.229-.138c.661 2.437.02 4.583-1.532 6.275Zm10.774-7.323c-.514 1.255-1.592 4.468-2.25 4.296-.563-.148-.906-2.59-.111-4.994.399-1.21 1.253-2.655 1.754-3.216.808-.903 1.697-1.198 1.913-.832.274.467-.983 3.959-1.306 4.746Zm8.9 4.247c-.218.114-.418.185-.51.13-.07-.04.09-.19.09-.19s1.112-1.199 1.551-1.744c.256-.317.55-.694.873-1.114l.003.125c-.002 1.435-1.388 2.403-2.007 2.793Zm6.857-1.564c-.163-.115-.135-.49.4-1.657.21-.459.69-1.23 1.524-1.967.097.303.155.593.154.864-.01 1.806-1.299 2.48-2.078 2.76Z"/>
</svg>
