<svg xmlns="http://www.w3.org/2000/svg" width="56" height="56" fill="none" viewBox="0 0 56 56">
  <path fill="#000" d="M49.233 25.783 30.217 6.767A3.187 3.187 0 0 0 28 5.833c-.817 0-1.633.35-2.217.934L21.7 10.85l4.783 4.783c.467-.233.934-.35 1.517-.35 1.983 0 3.5 1.517 3.5 3.5 0 .584-.117 1.05-.35 1.517l4.667 4.667a3.23 3.23 0 0 1 1.516-.35c1.984 0 3.5 1.516 3.5 3.5 0 1.983-1.516 3.5-3.5 3.5-1.983 0-3.5-1.517-3.5-3.5 0-.584.117-1.05.35-1.517l-4.666-4.667c-.117 0-.234.117-.35.117v12.133c1.4.467 2.333 1.75 2.333 3.267 0 1.983-1.517 3.5-3.5 3.5s-3.5-1.517-3.5-3.5c0-1.517.933-2.8 2.333-3.267v-12.25c-1.4-.466-2.333-1.75-2.333-3.266 0-.584.117-1.05.35-1.517l-4.783-4.783-13.3 13.416A3.187 3.187 0 0 0 5.833 28c0 .817.35 1.633.934 2.217l19.016 19.016c.584.584 1.4.934 2.217.934.817 0 1.633-.35 2.217-.934l19.016-19.016c.584-.584.934-1.4.934-2.217 0-.817-.35-1.633-.934-2.217Z"/>
</svg>
