<svg xmlns="http://www.w3.org/2000/svg" width="58" height="56" fill="none" viewBox="0 0 58 56">
  <path fill="#000" fill-rule="evenodd" d="M33.563.929c-.395 0-.762.085-1.101.198.72.482 1.115 1.119 1.313 1.84.014.1.042.17.056.27.014.085.029.17.029.255.056 1.246-.325 1.401-.593 2.138a3.033 3.033 0 0 0 .197 2.789c.043.099.1.212.17.311-.537-3.582 2.442-4.12 2.993-5.238.042-.977-.763-1.629-1.398-2.082a3.113 3.113 0 0 0-1.666-.481Zm4.49.807c-.057.326-.014.24-.029.41-.014.114-.014.255-.028.369a3.085 3.085 0 0 1-.099.34c-.028.113-.07.226-.113.34-.056.113-.098.212-.155.325-.042.057-.07.113-.113.17l-.084.127c-.071.1-.142.198-.212.283-.085.085-.156.184-.254.255v.014c-.085.071-.17.156-.269.227-.296.227-.635.396-.946.609-.098.07-.197.127-.282.212a2.06 2.06 0 0 0-.268.227c-.099.085-.17.17-.254.269-.07.085-.156.184-.212.283-.07.099-.141.198-.198.297-.056.113-.099.213-.155.326-.042.113-.085.212-.113.325a4.6 4.6 0 0 0-.099.354c-.014.057-.014.128-.028.185-.014.056-.014.113-.028.17 0 .113-.014.24-.014.353 0 .085 0 .17.014.255 0 .113.014.227.042.354.014.113.043.227.07.34.043.113.071.227.114.34.028.07.07.141.098.198l-3.247-1.26a34.824 34.824 0 0 0-1.637-.425l-.89-.212a26.143 26.143 0 0 0-2.57-.383c-.028 0-.042-.014-.07-.014a25.172 25.172 0 0 0-2.527-.127 26.79 26.79 0 0 0-4.433.382c-.212.028-.424.071-.636.113-.437.085-.86.184-1.27.284l-.636.17c-.211.084-.409.184-.606.269l-.466.212c-.029.014-.057.014-.071.028-.141.071-.268.128-.395.198a.69.69 0 0 0-.1.043c-.155.07-.31.156-.437.226-.099.043-.197.1-.282.142a1.26 1.26 0 0 1-.127.07c-.127.072-.254.142-.367.213a3.74 3.74 0 0 0-.34.213c-.098.07-.197.127-.281.198-.015.014-.029.014-.043.028a3.272 3.272 0 0 0-.268.198l-.028.029-.212.17c-.028.014-.057.042-.085.056-.07.057-.141.128-.212.184-.014.028-.042.043-.056.057-.085.085-.17.156-.254.24-.014 0-.014.015-.028.029a3.99 3.99 0 0 0-.255.24c-.014.015-.014.029-.028.029-.07.07-.141.141-.211.226-.029.029-.071.057-.1.085a3.98 3.98 0 0 1-.24.255c-.013.028-.042.043-.056.07-.113.114-.212.227-.325.34l-.042.043a8.34 8.34 0 0 1-.72.694 8.024 8.024 0 0 1-.79.623 10.8 10.8 0 0 1-.848.538 8.575 8.575 0 0 1-.89.425c-.296.127-.606.24-.917.34-.593.127-1.2.368-1.722.41-.113 0-.24.028-.353.043-.127.028-.24.056-.353.085l-.339.127c-.113.042-.226.099-.339.156-.099.07-.212.127-.31.198-.1.07-.198.156-.283.24-.099.071-.197.17-.282.255-.085.1-.17.184-.24.284-.07.113-.155.212-.212.325-.07.1-.141.213-.198.326-.056.127-.113.24-.155.368-.042.113-.085.24-.127.368a2.932 2.932 0 0 0-.07.34c0 .014-.015.028-.015.042-.028.128-.028.298-.042.383-.014.099-.028.184-.028.283 0 .056 0 .127.014.184.014.099.028.184.056.269.029.085.057.17.1.255v.014c.042.085.098.17.155.255.056.085.112.17.183.255.07.07.155.155.24.226.085.085.17.156.268.227.34.297.424.396.862.623.07.042.14.07.225.113.015 0 .029.014.043.014 0 .028 0 .043.014.07.014.114.042.227.07.34.029.128.071.241.113.34.043.085.071.17.113.255.015.029.029.057.043.071.056.113.113.213.17.312l.21.297c.072.085.156.184.241.269.085.085.17.156.268.24 0 0 .014.015.028.015.085.07.17.142.255.198.098.07.197.127.31.184.099.057.212.113.325.156.085.042.183.07.282.099.014.014.028.014.057.028l.183.043c-.042.764-.056 1.486.057 1.741.127.283.748-.58 1.37-1.571-.085.977-.142 2.123 0 2.463.155.354 1.002-.75 1.736-1.968 10.01-2.322 19.144 4.616 20.104 14.413-.184-1.529-2.061-2.378-2.922-2.166-.424 1.048-1.144 2.393-2.302 3.228a9.104 9.104 0 0 0-.14-2.831 9.167 9.167 0 0 1-1.752 3.568c-1.34.099-2.682-.553-3.388-1.53-.056-.042-.07-.127-.113-.184-.042-.099-.085-.198-.113-.297-.042-.1-.07-.198-.085-.297-.014-.1-.014-.198-.014-.312v-.212c.014-.1.043-.198.07-.297.03-.1.057-.199.1-.298.056-.099.099-.198.17-.297.24-.68.24-1.232-.198-1.558a1.63 1.63 0 0 0-.269-.141c-.056-.014-.127-.043-.183-.057-.043-.014-.07-.028-.113-.042a2.261 2.261 0 0 0-.297-.071 1.072 1.072 0 0 0-.296-.043 2.294 2.294 0 0 0-.31-.028c-.071 0-.142.014-.212.014-.114 0-.212.014-.311.043-.099.014-.198.028-.297.056-.098.029-.197.057-.296.1-.099.042-.184.085-.283.127-.084.042-.169.1-.268.142-3.29 2.152-1.327 7.192.918 8.65-.847.156-1.708.34-1.948.524l-.029.028c.607.369 1.243.68 1.906.95.904.296 1.864.565 2.288.679v.014a13.62 13.62 0 0 0 3.557.255c6.255-.44 11.38-5.21 12.311-11.497.029.128.057.24.085.368.042.255.099.524.127.793v.014c.028.128.042.255.057.368v.057c.014.127.028.255.028.368.014.156.028.312.028.468v.226c0 .07.014.156.014.227 0 .084-.014.17-.014.254v.199c0 .099-.014.184-.014.283 0 .056 0 .113-.014.184 0 .099-.014.198-.014.311-.014.043-.014.085-.014.128l-.043.325c0 .043 0 .085-.014.128-.014.141-.042.269-.056.41v.029c-.029.127-.057.269-.085.396v.043l-.085.382c0 .014-.014.042-.014.057a3.816 3.816 0 0 1-.099.382v.042c-.042.142-.085.27-.113.397-.014.014-.014.028-.014.028l-.127.425c-.056.141-.099.269-.155.41-.057.142-.1.284-.156.411-.056.142-.113.269-.17.41h-.013c-.057.128-.113.27-.184.397-.014.043-.028.07-.042.1-.014.013-.014.027-.028.042a13.391 13.391 0 0 1-3.968 4.757c-.113.07-.225.156-.338.24-.029.029-.07.043-.1.071a5.55 5.55 0 0 1-.31.213l.043.085h.014l.593-.085h.014a30.29 30.29 0 0 0 1.101-.199c.099-.014.212-.042.31-.07.071-.015.128-.029.198-.043.1-.014.198-.042.297-.056.084-.029.17-.043.254-.071a26.696 26.696 0 0 0 4.094-1.36 22.622 22.622 0 0 1-8.767 7.179 23.169 23.169 0 0 0 4.814-.835 22.57 22.57 0 0 0 13.342-10.69 22.633 22.633 0 0 1-3.798 9.104 22.238 22.238 0 0 0 3.77-3.143 22.466 22.466 0 0 0 5.943-12.035c.48 2.237.621 4.545.41 6.824 10.193-14.257.847-29.038-3.064-32.932-.014-.028-.028-.042-.028-.07-.014.013-.014.013-.014.028 0-.015 0-.015-.015-.029 0 .17-.014.34-.028.51a19.12 19.12 0 0 1-.14.949c-.072.311-.156.623-.24.934-.1.297-.213.609-.34.906-.127.283-.268.58-.423.864a9.668 9.668 0 0 1-.509.807c-.183.269-.38.524-.578.764-.212.255-.438.482-.664.708a9.09 9.09 0 0 1-.41.354c-.112.1-.211.184-.324.283a7.874 7.874 0 0 1-.79.553c-.269.17-.551.34-.834.48-.296.143-.593.27-.89.397a9.926 9.926 0 0 1-.917.298c-.31.085-.635.155-.946.212-.324.057-.65.085-.96.113-.226.015-.452.029-.677.029-.325 0-.65-.029-.96-.057a7.127 7.127 0 0 1-.96-.142 7.134 7.134 0 0 1-.946-.24h-.014c.31-.029.62-.057.931-.114a10.21 10.21 0 0 0 1.864-.51c.31-.113.607-.254.89-.396a9.88 9.88 0 0 0 .846-.467c.269-.184.537-.368.791-.566.254-.198.494-.41.72-.637.24-.213.452-.453.664-.694.211-.255.409-.51.593-.765.028-.042.056-.099.084-.141a17.3 17.3 0 0 0 .41-.68 9.746 9.746 0 0 0 .762-1.77c.099-.297.17-.609.24-.92.057-.326.113-.637.141-.949.029-.325.057-.65.057-.962 0-.227-.014-.453-.029-.68-.028-.326-.07-.637-.112-.949a10.295 10.295 0 0 0-.212-.948c-.099-.297-.198-.609-.31-.906a9.777 9.777 0 0 0-.396-.878c-.155-.283-.31-.566-.48-.835a15.643 15.643 0 0 0-.565-.78c-.212-.24-.423-.48-.65-.721a8.853 8.853 0 0 0-.366-.354 25.982 25.982 0 0 0-1.963-1.388 2.625 2.625 0 0 0-.282-.141c-.466-.298-.904-.453-1.341-.595Z" clip-rule="evenodd"/>
</svg>
