<svg xmlns="http://www.w3.org/2000/svg" width="27" height="56" fill="none" viewBox="0 0 27 56">
  <g clip-path="url(#a)">
    <path fill="#000" d="M18.458 6.242A99.408 99.408 0 0 1 13.65.032a.106.106 0 0 0-.154 0 99.418 99.418 0 0 1-4.808 6.21c-20.263 25.728 3.191 43.092 3.191 43.092l.197.13c.175 2.68.612 6.536.612 6.536h1.748s.438-3.834.613-6.536l.196-.152c.022 0 23.476-17.342 3.213-43.07Zm-4.896 42.7s-1.05-.894-1.333-1.351v-.044l1.268-28.016c0-.087.13-.087.13 0l1.268 28.016v.044c-.284.457-1.333 1.35-1.333 1.35Z"/>
  </g>
  <defs>
    <clipPath id="a">
      <path fill="#fff" d="M.44 0h26.047v56H.44z"/>
    </clipPath>
  </defs>
</svg>
