<svg xmlns="http://www.w3.org/2000/svg" width="57" height="56" fill="none" viewBox="0 0 57 56">
  <g clip-path="url(#a)">
    <path fill="#000" d="M1.347 35.419A28.026 28.026 0 0 1 .351 28C.35 16.52 7.562 6.02 18.297 1.88l1.407 3.642C10.464 9.087 4.258 18.12 4.258 28.002c0 2.167.288 4.314.855 6.382L1.347 35.42Z"/>
    <path fill="#000" d="M18.11 1.97A28.026 28.026 0 0 1 25.38.202c11.42-1.2 22.615 4.874 27.855 15.117l-3.475 1.78C45.248 8.285 35.617 3.057 25.79 4.09a24.08 24.08 0 0 0-6.258 1.518L18.109 1.97Z"/>
    <path fill="#000" d="M41.167 48.36c7.625-4.86 11.872-13.486 11.083-22.506a24.11 24.11 0 0 0-2.632-9.066l3.462-1.806a27.992 27.992 0 0 1 3.062 10.532c.916 10.478-4.016 20.495-12.875 26.142l-2.1-3.296ZM20.04 22.224c2.266 0 4.112 1.208 5.06 3.316l.075.165 3.805-1.292-.08-.195c-1.474-3.589-4.868-5.82-8.86-5.82-2.806 0-5.086.9-6.971 2.747-1.873 1.835-2.821 4.143-2.821 6.862 0 2.696.948 4.992 2.821 6.827 1.885 1.847 4.165 2.746 6.971 2.746 3.992 0 7.386-2.23 8.86-5.816l.08-.195-3.81-1.295-.073.17c-.85 2.072-2.74 3.31-5.057 3.31-1.578 0-2.91-.551-3.967-1.636-1.068-1.1-1.609-2.483-1.609-4.108 0-1.637.529-2.992 1.609-4.143 1.053-1.091 2.389-1.643 3.967-1.643Z"/>
    <path fill="#000" d="m43.874 18.753-5.422 13.722-5.46-13.722h-4.465l7.656 18.728-5.447 13.21 3.904.776 13.454-32.714h-4.22Z"/>
    <path fill="#000" d="m31.435 48.988-.952 2.302a1.265 1.265 0 0 1-1.107.786c-.321.012-.645.02-.972.02-11.197-.005-21.104-7.9-23.558-18.776l-3.812.86c1.378 6.102 4.836 11.64 9.736 15.596A28.176 28.176 0 0 0 28.361 56h.057c.375 0 .747-.009 1.119-.024a5.184 5.184 0 0 0 4.561-3.202l1.243-3.01-3.907-.776Z"/>
  </g>
  <defs>
    <clipPath id="a">
      <path fill="#fff" d="M.35 0h56v56h-56z"/>
    </clipPath>
  </defs>
</svg>
