<svg xmlns="http://www.w3.org/2000/svg" width="57" height="56" fill="none" viewBox="0 0 57 56">
  <g clip-path="url(#a)">
    <path fill="#000" d="M54.249 0H3.499A2.625 2.625 0 0 0 .874 2.625v50.75A2.625 2.625 0 0 0 3.499 56h50.75a2.625 2.625 0 0 0 2.625-2.625V2.625A2.625 2.625 0 0 0 54.249 0Z"/>
    <path fill="#fff" fill-rule="evenodd" d="M33.364 43.517v6.137c.994.51 2.17.894 3.527 1.15 1.358.256 2.788.383 4.292.383 1.466 0 2.858-.14 4.177-.421 1.32-.282 2.476-.745 3.47-1.39a7.08 7.08 0 0 0 2.362-2.532c.58-1.042.87-2.33.87-3.864 0-1.112-.166-2.087-.497-2.924a6.84 6.84 0 0 0-1.435-2.234 10.502 10.502 0 0 0-2.246-1.755 24.054 24.054 0 0 0-2.954-1.466 37.087 37.087 0 0 1-2.16-.969 10.947 10.947 0 0 1-1.625-.959c-.446-.326-.79-.67-1.033-1.035a2.184 2.184 0 0 1-.363-1.237c0-.422.109-.802.325-1.14a2.81 2.81 0 0 1 .918-.873c.395-.243.88-.432 1.453-.566a8.396 8.396 0 0 1 1.912-.201 12.733 12.733 0 0 1 3.327.47c.573.16 1.13.36 1.672.603a9.222 9.222 0 0 1 1.501.844v-5.733a14.89 14.89 0 0 0-3.05-.796c-1.102-.173-2.367-.259-3.794-.259-1.453 0-2.83.157-4.13.47-1.3.313-2.444.802-3.432 1.467a7.32 7.32 0 0 0-2.342 2.54c-.573 1.03-.86 2.26-.86 3.692 0 1.828.526 3.387 1.577 4.679 1.052 1.29 2.648 2.384 4.79 3.279.84.345 1.624.684 2.351 1.016.727.332 1.354.678 1.883 1.035.53.358.946.748 1.252 1.17.306.422.46.901.46 1.438 0 .397-.096.764-.287 1.103-.192.339-.482.633-.87.882-.39.25-.873.444-1.453.585-.58.14-1.259.21-2.036.21a11.746 11.746 0 0 1-7.552-2.8ZM23.056 28.242h8.005v-5.055H8.75v5.055h7.966V50.75h6.341V28.242Z" clip-rule="evenodd"/>
  </g>
  <defs>
    <clipPath id="a">
      <path fill="#fff" d="M.874 0h56v56h-56z"/>
    </clipPath>
  </defs>
</svg>
