<svg xmlns="http://www.w3.org/2000/svg" width="50" height="56" fill="none" viewBox="0 0 50 56">
  <g clip-path="url(#a)">
    <path fill="#000" d="M25.38 56c-.75 0-1.45-.204-2.101-.561l-6.657-4.031c-1-.562-.5-.766-.2-.868 1.351-.459 1.602-.561 3.003-1.377.15-.103.35-.051.5.05l5.105 3.113c.2.102.45.102.601 0l19.97-11.787c.2-.102.3-.306.3-.561V16.455c0-.255-.1-.459-.3-.561L25.63 4.158c-.2-.102-.45-.102-.6 0L5.06 15.894c-.2.102-.3.357-.3.561v23.523c0 .204.1.46.3.561l5.456 3.215c2.952 1.53 4.804-.255 4.804-2.041V18.496c0-.306.25-.612.6-.612h2.553c.3 0 .6.255.6.612v23.217c0 4.03-2.151 6.378-5.905 6.378-1.151 0-2.052 0-4.604-1.276L3.31 43.754c-1.302-.766-2.102-2.194-2.102-3.725V16.506c0-1.53.8-2.96 2.102-3.725L23.279.995c1.251-.715 2.953-.715 4.204 0L47.452 12.78c1.301.766 2.102 2.194 2.102 3.725V40.03c0 1.53-.8 2.96-2.102 3.725L27.482 55.54c-.6.255-1.35.459-2.101.459Z"/>
    <path fill="#000" d="M31.587 39.825c-8.759 0-10.56-4.082-10.56-7.552 0-.306.25-.612.6-.612h2.603c.3 0 .55.204.55.51.4 2.705 1.552 4.031 6.857 4.031 4.204 0 6.006-.97 6.006-3.265 0-1.327-.5-2.297-7.057-2.96-5.455-.561-8.859-1.786-8.859-6.225 0-4.133 3.404-6.582 9.109-6.582 6.406 0 9.56 2.245 9.96 7.143a.84.84 0 0 1-.15.46c-.1.102-.25.204-.4.204h-2.654a.59.59 0 0 1-.55-.46c-.6-2.806-2.152-3.724-6.256-3.724-4.605 0-5.155 1.632-5.155 2.857 0 1.48.65 1.939 6.857 2.755 6.156.817 9.058 1.99 9.058 6.378 0 4.49-3.653 7.042-9.96 7.042Z"/>
  </g>
  <defs>
    <clipPath id="a">
      <path fill="#fff" d="M.654 0h49.28v56H.654z"/>
    </clipPath>
  </defs>
</svg>
