<svg xmlns="http://www.w3.org/2000/svg" width="57" height="56" fill="none" viewBox="0 0 57 56">
  <path fill="#000" fill-rule="evenodd" d="M10.03 48.653 8.511 8.203a2.465 2.465 0 0 1 2.313-2.547L37.782 3.97l2.059.697 2.678-.993 2.701-.17a2.464 2.464 0 0 1 2.62 2.461v44.073a2.465 2.465 0 0 1-2.575 2.46l-32.884-1.476a2.463 2.463 0 0 1-2.352-2.369Z" clip-rule="evenodd"/>
  <path fill="#fff" fill-rule="evenodd" d="m42.517 3.674-4.733.294-.23 5.554a.369.369 0 0 0 .588.31l2.156-1.637 1.823 1.436a.367.367 0 0 0 .595-.301l-.196-5.655-.003-.001Zm-3.684 18.595c-.865.674-7.323 1.132-7.323.174.137-3.657-1.5-3.817-2.41-3.817-.863 0-2.319.26-2.319 2.22 0 1.996 2.127 3.123 4.624 4.446 3.545 1.88 7.84 4.156 7.84 9.878 0 5.488-4.46 8.517-10.143 8.517-5.867 0-10.996-2.374-10.417-10.604.227-.965 7.688-.735 7.688 0-.093 3.396.681 4.395 2.637 4.395 1.501 0 2.182-.828 2.182-2.22 0-2.11-2.214-3.354-4.764-4.785-3.452-1.938-7.515-4.218-7.515-9.454 0-5.223 3.592-8.707 10.006-8.707 6.413 0 9.914 3.431 9.914 9.957Z" clip-rule="evenodd"/>
</svg>
