<svg xmlns="http://www.w3.org/2000/svg" width="39" height="56" fill="none" viewBox="0 0 39 56">
  <g clip-path="url(#a)">
    <path fill="#000" d="M18.36 28a9.333 9.333 0 1 1 18.666 0 9.333 9.333 0 0 1-18.667 0Z"/>
    <path fill="#000" stroke="#000" d="M1.193 46.667a8.833 8.833 0 0 1 8.833-8.834h8.833v8.834a8.834 8.834 0 0 1-17.666 0Z"/>
    <path stroke="#000" d="M26.693 18.167h-8.834V.5h8.834a8.833 8.833 0 1 1 0 17.667Z"/>
    <path fill="#000" d="M.693 9.333a9.333 9.333 0 0 0 9.333 9.334h9.333V0h-9.333A9.333 9.333 0 0 0 .693 9.333Z"/>
    <path stroke="#000" d="M3.78 34.246a8.833 8.833 0 0 1 6.246-15.08h8.833v17.667h-8.833a8.83 8.83 0 0 1-6.246-2.587Z"/>
  </g>
  <defs>
    <clipPath id="a">
      <path fill="#fff" d="M.693 0h37.333v56H.693z"/>
    </clipPath>
  </defs>
</svg>
