<svg xmlns="http://www.w3.org/2000/svg" width="56" height="56" fill="none" viewBox="0 0 56 56">
  <path fill="#000" d="M0 56V0h56v56H0Z"/>
  <path fill="#fff" d="M36.615 41.918c1.076 1.748 2.246 3.423 4.724 3.423 2.081 0 3.173-1.034 3.173-2.465 0-1.713-1.129-2.321-3.419-3.318l-1.255-.535c-3.623-1.537-6.033-3.463-6.033-7.53 0-3.75 2.87-6.602 7.355-6.602 3.194 0 5.488 1.106 7.143 4.002l-3.91 2.5c-.86-1.537-1.79-2.142-3.233-2.142-1.471 0-2.403.928-2.403 2.142 0 1.5.933 2.106 3.087 3.035l1.256.535c4.27 1.818 6.678 3.675 6.678 7.85 0 4.5-3.553 6.965-8.322 6.965-4.666 0-7.315-2.341-8.79-5.24l3.949-2.62Zm-18.023.127c.787 1.41 1.983 2.494 3.704 2.494 1.646 0 2.593-.65 2.593-3.178V24.889h5.185v17.268c0 5.238-3.038 7.62-7.475 7.62-4.009 0-6.902-2.715-8.08-5.238l4.073-2.494Z"/>
</svg>
